<svg width="16" height="16" viewBox="0 0 16 16" fill="none" xmlns="http://www.w3.org/2000/svg">
<path fill-rule="evenodd" clip-rule="evenodd" d="M11.7946 2.75H14.0446C14.3551 2.75 14.6071 3.01133 14.6071 3.33333V14.4167C14.6071 14.7387 14.3551 15 14.0446 15H1.66956C1.35905 15 1.10706 14.7387 1.10706 14.4167V3.33333C1.10706 3.01133 1.35905 2.75 1.66956 2.75H3.91956V1.58333C3.91956 1.26133 4.17156 1 4.48206 1C4.79256 1 5.04456 1.26133 5.04456 1.58333V2.75H10.6696V1.58333C10.6696 1.26133 10.9216 1 11.2321 1C11.5426 1 11.7946 1.26133 11.7946 1.58333V2.75ZM3.91956 4.5V3.91667H2.23206V11.5H13.4821V3.91667H11.7946V4.5C11.7946 4.822 11.5426 5.08333 11.2321 5.08333C10.9216 5.08333 10.6696 4.822 10.6696 4.5V3.91667H5.04456V4.5C5.04456 4.822 4.79256 5.08333 4.48206 5.08333C4.17156 5.08333 3.91956 4.822 3.91956 4.5ZM2.23206 12.6667V13.8333H13.4821V12.6667H2.23206ZM9.26329 10.625H6.45079C6.14029 10.625 5.88829 10.3637 5.88829 10.0417V7.70832C5.88829 7.38632 6.14029 7.12499 6.45079 7.12499H8.70079V5.95832H6.45079C6.14029 5.95832 5.88829 5.69699 5.88829 5.37499C5.88829 5.05299 6.14029 4.79166 6.45079 4.79166H9.26329C9.5738 4.79166 9.8258 5.05299 9.8258 5.37499V7.70832C9.8258 8.03032 9.5738 8.29166 9.26329 8.29166H7.01329V9.45832H9.26329C9.5738 9.45832 9.8258 9.71966 9.8258 10.0417C9.8258 10.3637 9.5738 10.625 9.26329 10.625Z" fill="#ADB5BD"/>
</svg>
