<svg width="14" height="12" viewBox="0 0 14 12" fill="none" xmlns="http://www.w3.org/2000/svg">
<path d="M13.3089 10.7504C13.6645 10.2505 14 7.96604 14 6.03677C14 4.23885 13.6831 1.85465 13.3106 1.32543C13.2415 1.22758 13.1478 1.15743 13.0446 1.11836C10.5433 0.171145 1.57188 0.386758 0.742174 1.26005C0.699763 1.30468 0.656066 1.36856 0.62781 1.43728C0.166357 2.55685 0 4.75531 0 6.03677C0 7.32462 0.172709 9.55725 0.629891 10.6408C0.657818 10.707 0.699763 10.7687 0.742311 10.8135C1.57429 11.6888 10.5456 11.9015 13.0446 10.9552C13.1495 10.9154 13.2413 10.8451 13.3089 10.7504ZM9.06445 6.0368L12.5391 2.73591C12.9515 4.68023 12.9576 7.3644 12.5391 9.33774L9.06445 6.0368ZM11.6737 1.97194L7.00001 6.4119L2.32635 1.97194C4.80591 1.53762 9.18106 1.53532 11.6737 1.97194ZM1.46094 9.33769C1.04847 7.3934 1.04233 4.7092 1.46088 2.73588L4.93555 6.0368L1.46094 9.33769ZM2.32643 10.1016L5.77038 6.82987L6.604 7.62182C6.82596 7.83264 7.17409 7.83262 7.39603 7.62182L8.22965 6.82987L11.6736 10.1016C9.1939 10.5359 4.81853 10.5381 2.32643 10.1016Z" fill="#17139C"/>
</svg>
