<svg width="14" height="14" viewBox="0 0 14 14" fill="none" xmlns="http://www.w3.org/2000/svg">
<path d="M13.8291 0.1709C13.6014 -0.0569666 13.2321 -0.0569666 13.0042 0.1709L9.68421 3.49091C8.86347 3.14641 7.95812 2.91655 6.99995 2.91655C3.22377 2.91655 0.256955 6.47824 0.132341 6.62991C-0.0441135 6.8451 -0.0441135 7.15486 0.132341 7.37005C0.210527 7.46519 1.40583 8.90046 3.21708 9.95804L0.170793 13.0043C-0.0569309 13.2321 -0.0569309 13.6013 0.170793 13.8291C0.284584 13.9431 0.433979 14 0.583231 14C0.732626 14 0.881878 13.9431 0.995669 13.8291L4.31568 10.5091C5.13657 10.8536 6.04191 11.0833 6.99995 11.0833C10.7763 11.0833 13.7431 7.52172 13.8676 7.37005C14.044 7.15514 14.044 6.8451 13.8676 6.62991C13.7895 6.53478 12.5942 5.09979 10.783 4.04221L13.8291 0.995918C14.057 0.76791 14.057 0.398624 13.8291 0.1709ZM1.37108 6.99991C2.19681 6.14014 4.4403 4.08322 6.99995 4.08322C7.61632 4.08322 8.21334 4.20456 8.77745 4.39739L7.75248 5.42236C7.52447 5.31299 7.26983 5.2499 6.99995 5.2499C6.03479 5.2499 5.24993 6.0349 5.24993 6.99991C5.24993 7.26979 5.31302 7.52443 5.4224 7.75244L4.07899 9.09585C2.83583 8.42422 1.857 7.50606 1.37108 6.99991ZM12.6292 6.99991C11.8032 7.85954 9.5596 9.9166 6.99995 9.9166C6.38371 9.9166 5.7867 9.79569 5.2223 9.60257L6.24713 8.5776C6.47557 8.68698 6.73021 8.74992 6.99995 8.74992C7.9651 8.74992 8.74996 7.96507 8.74996 6.99991C8.74996 6.73017 8.68701 6.47553 8.57764 6.24752L9.92105 4.90411C11.1642 5.57575 12.1433 6.49419 12.6292 6.99991Z" fill="#17139C"/>
</svg>
