<svg width="46" height="40" viewBox="0 0 46 40" fill="none" xmlns="http://www.w3.org/2000/svg">
<g clip-path="url(#clip0_2_22)">
<path d="M42.5112 28.002C42.4077 27.4924 42.1358 26.151 42.0024 25.4935L37.6883 4.38114L36.7571 3.57934L34.1067 3.64902L27.0459 8.00901C26.6877 8.51333 26.4163 9.07239 26.2426 9.6637C26.2426 9.6637 28.9826 8.34821 29.7314 12.0416C29.8346 12.5509 30.1065 13.8924 30.2396 14.5501L30.5228 15.946L30.5211 15.9463L31.2999 19.7896L32.7416 26.7736C33.5284 30.6565 34.6352 35.4461 40.1804 34.6795C42.6114 34.3434 45.1458 33.2406 46 30.3796C46 30.3796 43.2595 31.695 42.5112 28.002Z" fill="url(#paint0_linear_2_22)"/>
<path d="M24.7123 33.6084C24.609 33.0991 24.3369 31.7578 24.2035 31.0998L20.986 15.2695L20.5453 13.0941C20.3032 11.9 20.1018 10.6242 19.6796 9.44662L16.6929 6.56611L9.24136 9.44282C9.8692 9.72639 10.4788 10.4019 10.7756 11.866C10.8788 12.3755 11.151 13.7169 11.2843 14.3745L14.9427 32.38C15.1672 33.6108 15.4782 34.8246 15.8735 36.0129L22.3937 40L26.962 36.2071C26.1337 36.1524 25.1232 35.6353 24.7123 33.6084Z" fill="url(#paint1_linear_2_22)"/>
<path d="M13.9234 5.34639C8.37827 4.57977 7.27146 9.36917 6.48454 13.2525L4.27886 24.1339H4.28034L3.99749 25.53C3.86409 26.1878 3.59233 27.529 3.48901 28.0388C2.74052 31.7316 0 30.4161 0 30.4161C0.854431 33.2776 3.38829 34.3802 5.81952 34.7162C11.3644 35.4828 12.4711 30.6934 13.2585 26.8103L15.4639 15.9289L15.4623 15.9285L15.7454 14.5325C15.8787 13.8749 16.1506 12.5333 16.2539 12.024C17.0025 8.33062 19.7428 9.64614 19.7428 9.64614C18.8886 6.78546 16.3544 5.68254 13.9234 5.34639Z" fill="url(#paint2_linear_2_22)"/>
<path d="M31.8722 0.0815998C26.327 -0.685021 25.2205 4.10451 24.4332 7.98777L23.9924 10.1629L22.1123 19.1596H22.1121L19.7585 30.7284C19.6253 31.3862 19.3534 32.7273 19.25 33.2369C18.5015 36.9296 15.7398 35.62 15.7398 35.62C16.5939 38.4812 19.1495 39.5785 21.5806 39.9144C27.1256 40.681 28.2329 35.8916 29.0194 32.0087L31.26 20.9915L33.6942 9.26797C33.8273 8.61042 34.0994 7.269 34.2027 6.75933C34.9512 3.06599 37.6918 4.38162 37.6918 4.38162C36.8376 1.52053 34.3032 0.41762 31.8722 0.0815998Z" fill="url(#paint3_linear_2_22)"/>
</g>
<defs>
<linearGradient id="paint0_linear_2_22" x1="30.5221" y1="-0.543603" x2="40.8441" y2="38.4987" gradientUnits="userSpaceOnUse">
<stop stop-color="#17139C"/>
<stop offset="1" stop-color="white"/>
</linearGradient>
<linearGradient id="paint1_linear_2_22" x1="13.0797" y1="2.14538" x2="25.9497" y2="42.866" gradientUnits="userSpaceOnUse">
<stop stop-color="white"/>
<stop offset="1" stop-color="#17139C"/>
</linearGradient>
<linearGradient id="paint2_linear_2_22" x1="4.27632" y1="1.35985" x2="13.6044" y2="38.5849" gradientUnits="userSpaceOnUse">
<stop stop-color="#17139C"/>
<stop offset="1" stop-color="white"/>
</linearGradient>
<linearGradient id="paint3_linear_2_22" x1="20.4947" y1="-5.28837" x2="35.4539" y2="43.7247" gradientUnits="userSpaceOnUse">
<stop stop-color="#17139C"/>
<stop offset="1" stop-color="white"/>
</linearGradient>
<clipPath id="clip0_2_22">
<rect width="46" height="40" fill="white"/>
</clipPath>
</defs>
</svg>
