<svg width="24" height="24" viewBox="0 0 24 24" fill="none" xmlns="http://www.w3.org/2000/svg">
<path fill-rule="evenodd" clip-rule="evenodd" d="M5.74202 1.5H18.008C18.4843 1.5 18.8705 1.88613 18.8705 2.36245V19.8853C18.8705 20.3616 18.4844 20.7478 18.008 20.7478H16.2558C15.7795 20.7478 15.3933 20.3616 15.3933 19.8853C15.3933 19.409 15.7795 19.0229 16.2558 19.0229H17.1456V3.22491H6.60447V19.0228H11.5452L11.2652 18.7429C10.9284 18.4061 10.9284 17.86 11.2652 17.5232C11.602 17.1864 12.1481 17.1864 12.4849 17.5232C12.983 18.0213 13.3417 18.3797 13.6008 18.6385L13.6015 18.6392C14.2463 19.2833 14.2726 19.3097 14.2947 19.3392L14.2999 19.3464L14.3069 19.3556C14.5519 19.6695 14.549 20.1048 14.3069 20.415C14.3029 20.4202 14.3002 20.4239 14.2978 20.4273C14.2971 20.4282 14.2965 20.4291 14.2958 20.4301C14.2761 20.4571 14.2522 20.481 13.5212 21.2115L13.521 21.2117C13.2692 21.4634 12.9334 21.7989 12.4849 22.2474C12.3165 22.4158 12.0957 22.5 11.875 22.5C11.1137 22.5001 10.7202 21.5727 11.2652 21.0277L11.5452 20.7477H5.75081L5.74202 20.7478L5.73137 20.7477C5.25785 20.7444 4.875 20.3596 4.875 19.8853C4.875 19.8551 4.87655 19.8253 4.87957 19.796V2.36245C4.87957 1.88613 5.2657 1.5 5.74202 1.5ZM13.6273 6.72947C14.1036 6.72947 14.4897 6.34334 14.4897 5.86701C14.4897 5.39069 14.1036 5.00456 13.6273 5.00456H10.1227C9.64641 5.00456 9.26028 5.39069 9.26028 5.86701C9.26028 6.34334 9.64641 6.72947 10.1227 6.72947H13.6273ZM9.24662 8.50916H14.5035C14.9798 8.50916 15.3659 8.8953 15.3659 9.37162C15.3659 9.84794 14.9798 10.2341 14.5035 10.2341H9.24662C8.7703 10.2341 8.38417 9.84794 8.38417 9.37162C8.38417 8.8953 8.7703 8.50916 9.24662 8.50916Z" fill="white"/>
</svg>
