<svg width="22" height="20" viewBox="0 0 22 20" fill="none" xmlns="http://www.w3.org/2000/svg">
<path d="M18.875 3.75V2.875C18.875 1.42728 17.6977 0.25 16.25 0.25H3.125C1.67728 0.25 0.5 1.42728 0.5 2.875V16.875C0.5 18.3227 1.67728 19.5 3.125 19.5H18.875C20.3227 19.5 21.5 18.3227 21.5 16.875V6.375C21.5 4.92728 20.3227 3.75 18.875 3.75ZM3.125 2H16.25C16.7326 2 17.125 2.39243 17.125 2.875V3.75H3.125C2.64243 3.75 2.25 3.35757 2.25 2.875C2.25 2.39243 2.64243 2 3.125 2ZM18.875 17.75H3.125C2.64243 17.75 2.25 17.3576 2.25 16.875V5.35004C2.52386 5.44702 2.81824 5.5 3.125 5.5H18.875C19.3576 5.5 19.75 5.89243 19.75 6.375V8.5625H14.9375C13.2488 8.5625 11.875 9.93674 11.875 11.625C11.875 13.3133 13.2488 14.6875 14.9375 14.6875H19.75V16.875C19.75 17.3576 19.3576 17.75 18.875 17.75ZM19.75 12.9375H17.7024C17.8949 12.531 18 12.0862 18 11.625C18 11.155 17.8902 10.7111 17.7003 10.3125H19.75V12.9375ZM13.625 11.625C13.625 10.9015 14.214 10.3125 14.9375 10.3125C15.661 10.3125 16.25 10.9015 16.25 11.625C16.25 11.9753 16.1131 12.3071 15.8706 12.5517C15.6196 12.8006 15.2878 12.9375 14.9375 12.9375C14.214 12.9375 13.625 12.3485 13.625 11.625Z" fill="white"/>
</svg>
