<svg width="16" height="16" viewBox="0 0 16 16" fill="none" xmlns="http://www.w3.org/2000/svg">
<path fill-rule="evenodd" clip-rule="evenodd" d="M5.08268 5.95854C5.08268 3.22433 7.30701 1 10.0412 1C12.7754 1 14.9998 3.22433 14.9998 5.95854C14.9998 8.69274 12.7754 10.9171 10.0412 10.9171C9.26274 10.9171 8.52856 10.7319 7.87257 10.4108L3.67271 14.6106C3.41322 14.8703 3.07255 15 2.73145 15C2.39049 15 2.04982 14.8703 1.79019 14.6106L1.38913 14.2096C0.87029 13.6906 0.87029 12.8462 1.38913 12.3273L4.37827 9.33819C4.37827 9.33791 4.37827 9.33762 4.37855 9.33762C4.37866 9.33762 4.37873 9.33762 4.3788 9.3376C4.3789 9.33757 4.37901 9.33751 4.37926 9.33734L5.58913 8.12747C5.26797 7.47119 5.08268 6.73701 5.08268 5.95854ZM2.61509 13.7857C2.67961 13.8497 2.78315 13.8497 2.84752 13.7857L5.42463 11.2087L4.791 10.5753L2.21403 13.1522C2.14994 13.2163 2.14994 13.3206 2.21403 13.3847L2.61509 13.7857ZM5.61591 9.75036L6.24939 10.3838L6.86807 9.7646C6.63849 9.57304 6.42642 9.36098 6.23487 9.1314L5.61591 9.75036ZM6.24939 5.95854C6.24939 8.04928 7.95047 9.75036 10.0412 9.75036C12.132 9.75036 13.833 8.04928 13.833 5.95854C13.833 3.86779 12.132 2.16671 10.0412 2.16671C7.95047 2.16671 6.24939 3.86779 6.24939 5.95854ZM10.0412 7.70861C11.0064 7.70861 11.7913 6.92373 11.7913 5.95854C11.7913 5.63652 12.0526 5.37518 12.3746 5.37518C12.6967 5.37518 12.958 5.63652 12.958 5.95854C12.958 7.5669 11.6496 8.87532 10.0412 8.87532C9.7192 8.87532 9.45786 8.61398 9.45786 8.29197C9.45786 7.96995 9.7192 7.70861 10.0412 7.70861Z" fill="#ADB5BD"/>
</svg>
