<svg width="24" height="24" viewBox="0 0 24 24" fill="none" xmlns="http://www.w3.org/2000/svg">
<path fill-rule="evenodd" clip-rule="evenodd" d="M4.702 14.9662L2.2511 14.6162C1.82022 14.5545 1.5 14.1854 1.5 13.75V10.25C1.5 9.81464 1.82022 9.4455 2.2511 9.38376L4.70242 9.03384C4.71524 9.00137 4.7287 8.96954 4.74237 8.9375L3.2579 6.95529C2.99707 6.60645 3.03168 6.1196 3.33972 5.81198L5.81155 3.34015C6.1196 3.03253 6.60645 2.9975 6.95465 3.25833L8.93707 4.74237L8.94722 4.7381C8.97619 4.72589 9.00476 4.71386 9.03384 4.702L9.38376 2.2511C9.4455 1.82022 9.81464 1.5 10.25 1.5H13.75C14.1854 1.5 14.5545 1.82022 14.6158 2.2511L14.9657 4.702C14.9982 4.71524 15.0305 4.7287 15.0625 4.74237L17.0447 3.25833C17.3931 2.99707 17.88 3.0321 18.188 3.34015L20.6599 5.81198C20.9679 6.1196 21.0025 6.60687 20.7417 6.95529L19.2576 8.9375C19.2713 8.96954 19.2843 9.00137 19.2976 9.03384L21.7489 9.38376C22.1798 9.4455 22.5 9.81464 22.5 10.25V13.75C22.5 14.1854 22.1798 14.5545 21.7489 14.6158L19.298 14.9657C19.2848 14.9982 19.2713 15.0305 19.2576 15.0625L20.7421 17.0447C21.0029 17.3936 20.9683 17.8804 20.6603 18.188L18.1884 20.6599C17.8808 20.9683 17.3936 21.0029 17.0453 20.7417L15.0629 19.2576L15.0528 19.2619C15.0238 19.2741 14.9952 19.2861 14.9662 19.298L14.6162 21.7489C14.5545 22.1798 14.1854 22.5 13.75 22.5H10.25C9.81464 22.5 9.4455 22.1798 9.38419 21.7489L9.03427 19.298C9.0018 19.2848 8.96954 19.2713 8.9375 19.2576L6.95529 20.7421C6.60602 21.0025 6.1196 20.9679 5.81198 20.6603L3.34015 18.1884C3.0321 17.8808 2.9975 17.3936 3.25833 17.0453L4.74237 15.0629L4.7381 15.0528C4.72589 15.0238 4.71386 14.9952 4.702 14.9662ZM5.46954 10.6913L3.25 11.0086V12.991L5.46954 13.3082C5.80237 13.3554 6.07837 13.5898 6.17984 13.9102C6.27084 14.1971 6.39047 14.4855 6.5351 14.7677C6.68784 15.0651 6.65771 15.4244 6.45734 15.692L5.11365 17.4867L6.51331 18.8864L8.30795 17.5427C8.57648 17.3419 8.93536 17.3117 9.2323 17.4649C9.5145 17.6095 9.80289 17.7292 10.0898 17.8202C10.4102 17.9216 10.6441 18.1976 10.6918 18.5305L11.009 20.75H12.991L13.3082 18.5305C13.3554 18.1976 13.5898 17.9216 13.9102 17.8202C14.1971 17.7292 14.4855 17.6095 14.7677 17.4649C15.0646 17.3117 15.424 17.3423 15.692 17.5427L17.4867 18.8864L18.8864 17.4867L17.5427 15.692C17.3419 15.424 17.3117 15.0651 17.4649 14.7677C17.6095 14.4855 17.7292 14.1971 17.8202 13.9102C17.9216 13.5898 18.1976 13.3559 18.5305 13.3082L20.75 12.991V11.0086L18.5305 10.6913C18.1976 10.6441 17.9216 10.4102 17.8202 10.0894C17.7292 9.80289 17.6095 9.5145 17.4649 9.2323C17.3122 8.93494 17.3423 8.57562 17.5427 8.30795L18.8864 6.51331L17.4867 5.11365L15.692 6.45734C15.424 6.65814 15.0646 6.68826 14.7677 6.5351C14.4855 6.39047 14.1971 6.27084 13.9102 6.17984C13.5898 6.07837 13.3559 5.80237 13.3082 5.46954L12.991 3.25H11.009L10.6918 5.46954C10.6446 5.80237 10.4102 6.07837 10.0898 6.17984C9.80289 6.27084 9.5145 6.39047 9.2323 6.5351C8.93536 6.68784 8.57648 6.65771 8.30795 6.45734L6.51331 5.11365L5.11365 6.51331L6.45734 8.30795C6.65814 8.57605 6.68826 8.93494 6.5351 9.2323C6.39047 9.51407 6.27084 9.80246 6.17984 10.0894C6.07837 10.4098 5.80237 10.6437 5.46954 10.6913ZM16.375 12C16.375 14.4125 14.4124 16.375 12 16.375C9.58753 16.375 7.62498 14.4125 7.62498 12C7.62498 9.58757 9.58753 7.62501 12 7.62501C14.4124 7.62501 16.375 9.58757 16.375 12ZM14.625 12C14.625 10.5523 13.4477 9.37501 12 9.37501C10.5523 9.37501 9.37498 10.5523 9.37498 12C9.37498 13.4477 10.5523 14.625 12 14.625C13.4477 14.625 14.625 13.4477 14.625 12Z" fill="white"/>
</svg>
