<svg width="24" height="24" viewBox="0 0 24 24" fill="none" xmlns="http://www.w3.org/2000/svg">
<path fill-rule="evenodd" clip-rule="evenodd" d="M1.7537 6.97533C1.48034 6.70267 1.418 6.27247 1.61862 5.93003C1.62623 5.91699 1.63233 5.90612 1.63879 5.89547C1.69986 5.7948 1.79345 5.71385 3.50522 4.00253C3.84215 3.66572 4.38821 3.66588 4.7249 4.00265C5.06166 4.3395 5.06162 4.88556 4.72477 5.22233L4.4448 5.50222H17.9142C19.4768 5.50222 20.748 6.77343 20.748 8.33599V13.318C20.748 13.7943 20.3619 14.1805 19.8856 14.1805C19.4093 14.1805 19.0231 13.7943 19.0231 13.318V10.6953H6.74341C6.26709 10.6953 5.88095 10.3092 5.88095 9.83286C5.88095 9.35653 6.26709 9 6.74341 9H19.0231V8.33599C19.0231 7.72456 18.5257 7.22712 17.9142 7.22712H4.44497L4.72485 7.50697C5.27005 8.05225 4.87615 8.9793 4.11498 8.9793C3.89427 8.9793 3.67352 8.89515 3.5051 8.72673L1.7537 6.97533ZM22.245 17.3691C22.5305 17.6522 22.5797 18.0887 22.3753 18.4266C22.3688 18.4375 22.3632 18.4469 22.3574 18.4561C22.2939 18.557 22.2001 18.6389 20.4951 20.3435C20.1582 20.6803 19.6122 20.6802 19.2754 20.3433C18.9387 20.0065 18.9387 19.4604 19.2756 19.1237L19.5556 18.8437H4.33378C2.77122 18.8437 1.5 17.5725 1.5 16.01L1.50012 10.6387C1.50012 10.161 1.88774 9.77631 2.36262 9.77631C2.83894 9.77631 3.22503 10.1624 3.22503 10.6388L3.22491 16.01C3.22491 16.6214 3.72234 17.1188 4.33378 17.1188H19.5554L19.2755 16.839C18.9388 16.5022 18.9388 15.9561 19.2755 15.6193C19.6123 15.2825 20.1584 15.2825 20.4952 15.6193L22.245 17.3691Z" fill="white"/>
</svg>
