<svg width="16" height="16" viewBox="0 0 16 16" fill="none" xmlns="http://www.w3.org/2000/svg">
<path fill-rule="evenodd" clip-rule="evenodd" d="M14.3365 7.0431L6.46151 2.08478C6.28769 1.9754 6.07057 1.97161 5.89366 2.07486C5.71676 2.17811 5.60707 2.37236 5.60707 2.58323V7.54156C5.60707 7.86356 5.85907 8.1249 6.16957 8.1249C6.48007 8.1249 6.73207 7.86356 6.73207 7.54156V3.61982L12.9606 7.54156L6.73207 11.4633V9.87489C6.73207 9.55289 6.48007 9.29156 6.16957 9.29156C5.85907 9.29156 5.60707 9.55289 5.60707 9.87489V12.4999C5.60707 12.7108 5.71676 12.905 5.89366 13.0083C5.97944 13.0584 6.07451 13.0832 6.16957 13.0832C6.27082 13.0832 6.37179 13.0549 6.46151 12.9983L14.3365 8.04002C14.5044 7.93444 14.6071 7.74544 14.6071 7.54156C14.6071 7.33769 14.5044 7.14869 14.3365 7.0431ZM4.20081 10.7499H1.66956C1.35906 10.7499 1.10706 11.0112 1.10706 11.3332C1.10706 11.6552 1.35906 11.9166 1.66956 11.9166H4.20081C4.51131 11.9166 4.76331 11.6552 4.76331 11.3332C4.76331 11.0112 4.51131 10.7499 4.20081 10.7499ZM1.66956 3.16657H3.07581C3.38631 3.16657 3.63831 3.4279 3.63831 3.74991C3.63831 4.07191 3.38631 4.33324 3.07581 4.33324H1.66956C1.35906 4.33324 1.10706 4.07191 1.10706 3.74991C1.10706 3.4279 1.35906 3.16657 1.66956 3.16657ZM4.2008 5.49991H3.91955C3.60905 5.49991 3.35705 5.76124 3.35705 6.08324C3.35705 6.40524 3.60905 6.66657 3.91955 6.66657H4.2008C4.5113 6.66657 4.7633 6.40524 4.7633 6.08324C4.7633 5.76124 4.5113 5.49991 4.2008 5.49991ZM2.79457 8.12491H3.63832C3.94882 8.12491 4.20082 8.38624 4.20082 8.70824C4.20082 9.03024 3.94882 9.29157 3.63832 9.29157H2.79457C2.48407 9.29157 2.23207 9.03024 2.23207 8.70824C2.23207 8.38624 2.48407 8.12491 2.79457 8.12491Z" fill="#ADB5BD"/>
</svg>
