<svg width="11" height="14" viewBox="0 0 11 14" fill="none" xmlns="http://www.w3.org/2000/svg">
<path fill-rule="evenodd" clip-rule="evenodd" d="M8.19135 10.036C8.02175 10.306 7.67362 10.3828 7.41311 10.2078C7.15273 10.0322 7.07844 9.67086 7.24777 9.4007C8.40064 7.55941 9.03566 6.08527 9.03566 5.25C9.03566 2.99827 7.26946 1.16667 5.09815 1.16667C2.92684 1.16667 1.16065 2.99827 1.16065 5.25C1.16065 6.98946 3.69671 10.6614 5.0965 12.4897C5.34232 12.1677 5.67383 11.7226 6.03899 11.2052C6.22205 10.9453 6.57389 10.8885 6.82534 11.0789C7.07597 11.2692 7.13049 11.6343 6.94715 11.8944C6.16891 12.9967 5.55546 13.759 5.52964 13.7909C5.42266 13.9232 5.26459 14 5.09815 14H5.09788C4.93143 14 4.77337 13.923 4.66639 13.7906C4.19246 13.202 0.0356445 7.96159 0.0356445 5.25C0.0356445 2.35527 2.3068 0 5.09815 0C7.8895 0 10.1607 2.35527 10.1607 5.25C10.1607 6.33877 9.49832 7.94906 8.19135 10.036ZM5.09816 6.70833C4.01257 6.70833 3.12941 5.79218 3.12941 4.66667C3.12941 3.54116 4.01257 2.625 5.09816 2.625C6.18347 2.625 7.06691 3.54116 7.06691 4.66667C7.06691 5.79218 6.18347 6.70833 5.09816 6.70833ZM5.09816 5.54167C5.56329 5.54167 5.94191 5.14903 5.94191 4.66667C5.94191 4.18431 5.56329 3.79167 5.09816 3.79167C4.63303 3.79167 4.25441 4.18431 4.25441 4.66667C4.25441 5.14903 4.63303 5.54167 5.09816 5.54167Z" fill="#ADB5BD"/>
</svg>
