<svg width="16" height="16" viewBox="0 0 16 16" fill="none" xmlns="http://www.w3.org/2000/svg">
<path fill-rule="evenodd" clip-rule="evenodd" d="M11.6621 8.63875C11.6328 8.61396 11.6022 8.59267 11.5696 8.57487C11.1058 8.25667 10.6021 7.99708 10.068 7.80458C10.9443 7.111 11.5133 6.02046 11.5133 4.79167C11.5133 2.701 9.87307 1 7.85706 1C5.84106 1 4.20081 2.701 4.20081 4.79167C4.20081 6.02046 4.76978 7.111 5.64587 7.80429C5.11178 7.99679 4.60806 8.25667 4.14428 8.57458C4.11193 8.59237 4.081 8.61367 4.05175 8.63846C2.27537 9.90079 1.10706 12.0195 1.10706 14.4167C1.10706 14.7387 1.35906 15 1.66956 15C1.98006 15 2.23206 14.7387 2.23206 14.4167C2.23206 12.573 3.06343 10.9295 4.35493 9.85967L7.45938 13.0791C7.56484 13.1885 7.708 13.25 7.85706 13.25C8.00613 13.25 8.14928 13.1885 8.25475 13.0791L11.3592 9.85967C12.6507 10.9295 13.4821 12.573 13.4821 14.4167C13.4821 14.7387 13.7341 15 14.0446 15C14.3551 15 14.6071 14.7387 14.6071 14.4167C14.6071 12.0195 13.4388 9.90079 11.6621 8.63875ZM5.32581 4.79167C5.32581 3.34442 6.46122 2.16667 7.85706 2.16667C9.25291 2.16667 10.3883 3.34442 10.3883 4.79167C10.3883 6.23892 9.25291 7.41667 7.85706 7.41667C6.46122 7.41667 5.32581 6.23892 5.32581 4.79167ZM7.85706 11.8415L5.3244 9.21508C6.08659 8.81433 6.94553 8.58333 7.85706 8.58333C8.7686 8.58333 9.62753 8.81433 10.3897 9.21508L7.85706 11.8415ZM4.48205 12.9583C4.17155 12.9583 3.91955 13.2197 3.91955 13.5417V14.4167C3.91955 14.7387 4.17155 15 4.48205 15C4.79255 15 5.04455 14.7387 5.04455 14.4167V13.5417C5.04455 13.2197 4.79255 12.9583 4.48205 12.9583ZM10.9508 13.5417C10.9508 13.2197 11.2028 12.9583 11.5133 12.9583C11.8238 12.9583 12.0758 13.2197 12.0758 13.5417V14.4167C12.0758 14.7387 11.8238 15 11.5133 15C11.2028 15 10.9508 14.7387 10.9508 14.4167V13.5417Z" fill="#ADB5BD"/>
</svg>
