<svg width="27" height="18" viewBox="0 0 27 18" fill="none" xmlns="http://www.w3.org/2000/svg">
<rect opacity="0.15" width="27" height="18" rx="2" fill="#212130"/>
<path fill-rule="evenodd" clip-rule="evenodd" d="M17.0234 5.625C17.6771 5.625 18.2026 5.76822 18.5363 5.89953L18.3079 7.31704L18.1562 7.24236C17.8443 7.10957 17.445 6.98208 16.8924 6.99113C16.2311 6.99113 15.9255 7.28201 15.9251 7.55363C15.921 7.86068 16.2833 8.06143 16.8732 8.3649C17.8476 8.83146 18.2975 9.39618 18.2915 10.1416C18.2781 11.4983 17.1254 12.375 15.351 12.375C14.5933 12.3667 13.8636 12.2086 13.4698 12.0265L13.7059 10.5629L13.9233 10.667C14.4784 10.911 14.8377 11.0099 15.5136 11.0099C15.9992 11.0099 16.5197 10.8091 16.5241 10.3712C16.5269 10.085 16.3059 9.88006 15.6479 9.55979C15.0079 9.24761 14.1587 8.72294 14.1689 7.78338C14.1791 6.51244 15.3541 5.625 17.0234 5.625ZM11.7797 5.73903L10.7233 12.2777H12.4117L13.4679 5.73903H11.7797ZM22.8017 5.74566H21.4971C21.0923 5.74566 20.7891 5.86142 20.6121 6.28765L18.1043 12.2803H19.878C19.878 12.2803 20.1674 11.4742 20.233 11.297C20.324 11.297 20.753 11.2978 21.2076 11.2987L21.2094 11.2987C21.7214 11.2997 22.2653 11.3008 22.3954 11.3008C22.4457 11.5285 22.601 12.2803 22.601 12.2803H24.168L22.8017 5.74566ZM20.7187 9.95959C20.8588 9.58361 21.3915 8.13202 21.3915 8.13202C21.3869 8.14009 21.4174 8.05658 21.4599 7.94035L21.4599 7.9402C21.5076 7.80957 21.5704 7.63767 21.6155 7.508L21.7294 8.07209C21.7294 8.07209 22.0533 9.63248 22.1202 9.95953L20.7187 9.95959ZM7.65528 10.1997L6.77783 5.74419L3.375 5.74425L5.30078 7.16826L6.65011 12.2726H8.43706L11.096 5.74442H9.30684L7.65528 10.1997Z" fill="#1A1F71"/>
</svg>
