<svg width="14" height="14" viewBox="0 0 14 14" fill="none" xmlns="http://www.w3.org/2000/svg">
<path fill-rule="evenodd" clip-rule="evenodd" d="M11.0833 1.75H13.4167C13.7387 1.75 14 2.01133 14 2.33333V13.4167C14 13.7387 13.7387 14 13.4167 14H0.583333C0.261332 14 0 13.7387 0 13.4167V2.33333C0 2.01133 0.261332 1.75 0.583333 1.75H2.91667V0.583333C2.91667 0.261332 3.178 0 3.5 0C3.822 0 4.08333 0.261332 4.08333 0.583333V1.75H9.91667V0.583333C9.91667 0.261332 10.178 0 10.5 0C10.822 0 11.0833 0.261332 11.0833 0.583333V1.75ZM2.91667 3.5V2.91667H1.16667V10.5H12.8333V2.91667H11.0833V3.5C11.0833 3.822 10.822 4.08333 10.5 4.08333C10.178 4.08333 9.91667 3.822 9.91667 3.5V2.91667H4.08333V3.5C4.08333 3.822 3.822 4.08333 3.5 4.08333C3.178 4.08333 2.91667 3.822 2.91667 3.5ZM1.16667 11.6667V12.8333H12.8333V11.6667H1.16667ZM8.45831 9.62499H5.54165C5.21965 9.62499 4.95831 9.36366 4.95831 9.04166V6.70832C4.95831 6.38632 5.21965 6.12499 5.54165 6.12499H7.87498V4.95832H5.54165C5.21965 4.95832 4.95831 4.69699 4.95831 4.37499C4.95831 4.05299 5.21965 3.79166 5.54165 3.79166H8.45831C8.78031 3.79166 9.04165 4.05299 9.04165 4.37499V6.70832C9.04165 7.03032 8.78031 7.29166 8.45831 7.29166H6.12498V8.45832H8.45831C8.78031 8.45832 9.04165 8.71966 9.04165 9.04166C9.04165 9.36366 8.78031 9.62499 8.45831 9.62499Z" fill="#17139C"/>
</svg>
